<?xml version="1.0" standalone="no"?>
<!DOCTYPE svg PUBLIC "-//W3C//DTD SVG 20010904//EN"
 "http://www.w3.org/TR/2001/REC-SVG-20010904/DTD/svg10.dtd">
<svg version="1.0" xmlns="http://www.w3.org/2000/svg"
 width="512.000000pt" height="512.000000pt" viewBox="0 0 512.000000 512.000000"
 preserveAspectRatio="xMidYMid meet">
<metadata>
Created by potrace 1.14, written by Peter Selinger 2001-2017
</metadata>
<g transform="translate(0.000000,512.000000) scale(0.100000,-0.100000)"
fill="#000000" stroke="none">
<path d="M1410 4720 c-696 -131 -1283 -244 -1304 -251 -23 -8 -52 -30 -70 -52
l-31 -39 0 -1817 0 -1818 29 -37 c16 -21 43 -44 60 -51 17 -7 614 -122 1326
-256 980 -183 1304 -241 1332 -235 46 8 96 49 114 93 11 26 14 144 14 608 l0
575 264 0 c257 0 264 1 297 23 106 71 106 203 0 274 -33 22 -40 23 -297 23
l-264 0 0 160 0 160 264 0 c257 0 264 1 297 23 106 71 106 203 0 274 -33 22
-40 23 -297 23 l-264 0 0 160 0 160 264 0 c257 0 264 1 297 23 106 71 106 203
0 274 -33 22 -40 23 -297 23 l-264 0 0 160 0 160 264 0 c257 0 264 1 297 23
106 71 106 203 0 274 -33 22 -40 23 -297 23 l-264 0 -2 589 c-3 580 -3 590
-24 618 -36 48 -82 73 -133 72 -25 -1 -615 -108 -1311 -239z m714 -1211 c80
-22 128 -106 107 -186 -10 -37 -175 -258 -492 -658 l-47 -61 263 -301 c172
-197 267 -313 275 -338 24 -71 -13 -154 -83 -185 -106 -49 -122 -37 -408 290
-134 154 -247 276 -250 272 -4 -4 -101 -129 -217 -278 -185 -238 -216 -273
-253 -288 -78 -31 -166 2 -199 77 -23 51 -25 77 -6 122 8 19 117 165 241 326
l227 291 -19 21 c-223 248 -443 511 -453 541 -24 72 13 155 83 186 104 48 126
33 373 -251 115 -131 211 -239 214 -238 3 0 115 142 250 316 203 262 252 319
285 334 47 22 57 22 109 8z"/>
<path d="M3919 3657 c-52 -35 -79 -82 -79 -137 0 -55 27 -102 79 -137 33 -22
42 -23 241 -23 199 0 208 1 241 23 106 71 106 203 0 274 -33 22 -42 23 -241
23 -199 0 -208 -1 -241 -23z"/>
<path d="M3919 3017 c-52 -35 -79 -82 -79 -137 0 -55 27 -102 79 -137 33 -22
42 -23 241 -23 199 0 208 1 241 23 106 71 106 203 0 274 -33 22 -42 23 -241
23 -199 0 -208 -1 -241 -23z"/>
<path d="M3919 2377 c-52 -35 -79 -82 -79 -137 0 -55 27 -102 79 -137 33 -22
42 -23 241 -23 199 0 208 1 241 23 106 71 106 203 0 274 -33 22 -42 23 -241
23 -199 0 -208 -1 -241 -23z"/>
<path d="M3919 1737 c-52 -35 -79 -82 -79 -137 0 -55 27 -102 79 -137 33 -22
42 -23 241 -23 199 0 208 1 241 23 106 71 106 203 0 274 -33 22 -42 23 -241
23 -199 0 -208 -1 -241 -23z"/>
</g>
</svg>
